<svg width="293" height="287" viewBox="0 0 293 287" fill="none" xmlns="http://www.w3.org/2000/svg">
<path d="M17.1168 0H143C225.843 0 293 67.1573 293 150V250.892C293 253.653 290.761 255.892 288 255.892H22.1168C19.3554 255.892 17.1168 253.653 17.1168 250.892V0Z" fill="#070707"/>
<path d="M179.024 201.785C179.024 208.785 176.858 214.452 172.524 218.785C168.191 222.952 162.524 225.035 155.524 225.035H137.524C130.524 225.035 124.858 222.952 120.524 218.785C116.191 214.452 114.024 208.785 114.024 201.785V73.285C114.024 66.285 116.191 60.7016 120.524 56.535C124.858 52.2016 130.524 50.035 137.524 50.035H155.524C162.524 50.035 168.191 52.2016 172.524 56.535C176.858 60.7016 179.024 66.285 179.024 73.285V113.285H155.274V74.535C155.274 73.7016 154.858 73.285 154.024 73.285H139.024C138.191 73.285 137.774 73.7016 137.774 74.535V200.535C137.774 201.368 138.191 201.785 139.024 201.785H154.024C154.858 201.785 155.274 201.368 155.274 200.535V148.785H145.524L147.524 125.535H179.024V201.785Z" fill="white"/>
</svg>
